<svg xmlns="http://www.w3.org/2000/svg" viewBox="0 0 1280 720" role="img" aria-label="Cliffside XP garden terrace with magical growth tree outside the mountain home">
  <defs>
    <linearGradient id="sky" x1="0" y1="0" x2="0" y2="1">
      <stop offset="0" stop-color="#7fa8bd"/>
      <stop offset="0.55" stop-color="#556f82"/>
      <stop offset="1" stop-color="#253240"/>
    </linearGradient>
    <linearGradient id="parchmentGlow" x1="0" y1="0" x2="1" y2="1">
      <stop offset="0" stop-color="#f6d98b" stop-opacity="0.48"/>
      <stop offset="1" stop-color="#f6d98b" stop-opacity="0"/>
    </linearGradient>
    <radialGradient id="treeGlow" cx="50%" cy="48%" r="55%">
      <stop offset="0" stop-color="#a6fff1" stop-opacity="0.42"/>
      <stop offset="0.45" stop-color="#7fc7ff" stop-opacity="0.16"/>
      <stop offset="1" stop-color="#000" stop-opacity="0"/>
    </radialGradient>
    <radialGradient id="lanternGlow" cx="50%" cy="50%" r="55%">
      <stop offset="0" stop-color="#ffc96d" stop-opacity="0.85"/>
      <stop offset="1" stop-color="#ffc96d" stop-opacity="0"/>
    </radialGradient>
    <filter id="soft" x="-20%" y="-20%" width="140%" height="140%">
      <feGaussianBlur stdDeviation="3"/>
    </filter>
    <filter id="rough" x="-10%" y="-10%" width="120%" height="120%">
      <feTurbulence type="fractalNoise" baseFrequency="0.012" numOctaves="3" seed="8" result="noise"/>
      <feColorMatrix in="noise" type="saturate" values="0" result="mono"/>
      <feBlend in="SourceGraphic" in2="mono" mode="multiply"/>
    </filter>
  </defs>

  <rect width="1280" height="720" fill="url(#sky)"/>
  <circle cx="72" cy="190" r="285" fill="url(#parchmentGlow)"/>
  <path d="M0 410 C120 335 215 345 345 420 C485 500 625 390 760 455 C930 535 1025 430 1280 520 L1280 720 L0 720 Z" fill="#223342" opacity="0.72"/>
  <path d="M0 460 C125 395 270 390 430 465 C575 532 725 455 890 505 C1050 548 1160 520 1280 575 L1280 720 L0 720 Z" fill="#192a35" opacity="0.84"/>

  <!-- massive mountain overhang -->
  <path d="M270 -90 L1320 -80 L1320 480 C1180 455 1105 420 1035 350 C960 275 870 235 735 205 C565 165 435 78 270 -90 Z" fill="#292929" opacity="0.96" filter="url(#rough)"/>
  <path d="M850 -20 L1320 -20 L1320 720 L1130 720 C1090 650 1065 590 1072 515 C1080 430 1010 368 980 285 C945 190 910 92 850 -20 Z" fill="#1d1f20" opacity="0.98"/>
  <path d="M365 55 C500 95 570 145 710 170 C855 198 985 270 1070 385" fill="none" stroke="#4e4b44" stroke-width="28" stroke-linecap="round" opacity="0.25"/>
  <path d="M920 70 C965 170 980 250 1045 340 C1090 405 1080 505 1125 625" fill="none" stroke="#54504a" stroke-width="34" stroke-linecap="round" opacity="0.18"/>

  <!-- cliff terrace -->
  <path d="M170 495 L590 430 L1010 465 L1180 585 L970 705 L245 720 L75 615 Z" fill="#50563f"/>
  <path d="M180 545 L600 490 L1005 515 L1180 585 L970 705 L245 720 L75 615 Z" fill="#30392d"/>
  <path d="M500 560 L640 510 L750 535 L815 720 L600 720 Z" fill="#4c463b" opacity="0.95"/>

  <!-- stone path -->
  <g opacity="0.88">
    <rect x="508" y="548" width="54" height="19" rx="5" fill="#6f6755"/>
    <rect x="565" y="548" width="52" height="19" rx="5" fill="#56584e"/>
    <rect x="622" y="548" width="54" height="19" rx="5" fill="#756c58"/>
    <rect x="496" y="576" width="54" height="19" rx="5" fill="#625f52"/>
    <rect x="556" y="576" width="52" height="19" rx="5" fill="#807661"/>
    <rect x="618" y="576" width="56" height="19" rx="5" fill="#57584e"/>
    <rect x="485" y="604" width="54" height="19" rx="5" fill="#746a57"/>
    <rect x="547" y="604" width="52" height="19" rx="5" fill="#5b5b4f"/>
    <rect x="612" y="604" width="56" height="19" rx="5" fill="#867961"/>
    <rect x="474" y="632" width="58" height="20" rx="5" fill="#696354"/>
    <rect x="540" y="632" width="55" height="20" rx="5" fill="#77705c"/>
    <rect x="607" y="632" width="58" height="20" rx="5" fill="#5a5b50"/>
    <rect x="465" y="660" width="62" height="21" rx="5" fill="#83745d"/>
    <rect x="535" y="660" width="58" height="21" rx="5" fill="#5a5a50"/>
    <rect x="606" y="660" width="62" height="21" rx="5" fill="#706a58"/>
  </g>

  <!-- cliffside house -->
  <g filter="url(#rough)">
    <path d="M775 270 L1030 290 L1018 480 L785 475 Z" fill="#58432e"/>
    <path d="M735 285 L880 195 L1075 292 L1030 307 L775 288 Z" fill="#563323"/>
    <path d="M605 340 L810 325 L810 535 L600 545 Z" fill="#674e32"/>
    <path d="M580 345 L700 260 L835 330 L810 345 L605 358 Z" fill="#553324"/>
    <g fill="#2d1e16" opacity="0.86">
      <rect x="620" y="355" width="9" height="185"/>
      <rect x="700" y="355" width="9" height="185"/>
      <rect x="795" y="330" width="9" height="205"/>
      <rect x="875" y="315" width="9" height="170"/>
      <rect x="965" y="315" width="9" height="170"/>
      <rect x="600" y="370" width="425" height="7"/>
      <rect x="600" y="435" width="425" height="7"/>
      <rect x="600" y="500" width="425" height="7"/>
    </g>
    <g fill="#f8ae4e" opacity="0.72" stroke="#332218">
      <rect x="635" y="380" width="35" height="40" rx="5"/>
      <rect x="735" y="375" width="35" height="45" rx="5"/>
      <rect x="890" y="340" width="40" height="42" rx="5"/>
      <rect x="960" y="355" width="35" height="50" rx="5"/>
    </g>
    <rect x="695" y="470" width="57" height="75" rx="8" fill="#2a1e19" stroke="#9d6d3d"/>
  </g>

  <!-- XP growth tree -->
  <ellipse cx="532" cy="448" rx="210" ry="180" fill="url(#treeGlow)"/>
  <path d="M500 650 C498 595 490 565 525 505 C540 475 540 458 550 445" fill="none" stroke="#412a20" stroke-width="30" stroke-linecap="round"/>
  <path d="M500 650 C498 595 490 565 525 505 C540 475 540 458 550 445" fill="none" stroke="#704b32" stroke-width="12" stroke-linecap="round"/>
  <g fill="none" stroke-linecap="round">
    <path d="M532 495 C500 475 475 455 445 400" stroke="#482f24" stroke-width="13"/>
    <path d="M536 490 C570 462 605 430 650 388" stroke="#482f24" stroke-width="13"/>
    <path d="M535 475 C540 420 540 385 535 350" stroke="#482f24" stroke-width="12"/>
    <path d="M505 535 C470 525 435 505 405 465" stroke="#482f24" stroke-width="12"/>
    <path d="M540 535 C595 532 645 512 690 480" stroke="#482f24" stroke-width="12"/>
    <path d="M532 495 C500 475 475 455 445 400" stroke="#81593a" stroke-width="5" opacity="0.65"/>
    <path d="M536 490 C570 462 605 430 650 388" stroke="#81593a" stroke-width="5" opacity="0.65"/>
    <path d="M535 475 C540 420 540 385 535 350" stroke="#81593a" stroke-width="5" opacity="0.65"/>
  </g>
  <g opacity="0.88">
    <circle cx="488" cy="420" r="36" fill="#4c8a62"/>
    <circle cx="530" cy="405" r="48" fill="#679d6d"/>
    <circle cx="590" cy="425" r="42" fill="#5f9469"/>
    <circle cx="455" cy="470" r="45" fill="#4d7c5e"/>
    <circle cx="545" cy="482" r="58" fill="#60946d"/>
    <circle cx="625" cy="488" r="44" fill="#517d61"/>
    <circle cx="535" cy="350" r="31" fill="#8fb979" opacity="0.7"/>
    <circle cx="650" cy="388" r="32" fill="#74ad7a" opacity="0.72"/>
    <circle cx="405" cy="465" r="28" fill="#76a472" opacity="0.7"/>
  </g>
  <g filter="url(#soft)">
    <polygon points="535,338 548,355 535,378 522,355" fill="#91e6ff" opacity="0.76"/>
    <polygon points="452,393 465,410 452,433 439,410" fill="#aa7cff" opacity="0.76"/>
    <polygon points="635,375 648,392 635,416 622,392" fill="#ffd17a" opacity="0.76"/>
    <polygon points="600,458 612,475 600,498 588,475" fill="#91e6ff" opacity="0.62"/>
  </g>
  <g stroke="#fff" stroke-opacity="0.45" fill="none">
    <polygon points="535,338 548,355 535,378 522,355"/>
    <polygon points="452,393 465,410 452,433 439,410"/>
    <polygon points="635,375 648,392 635,416 622,392"/>
    <polygon points="600,458 612,475 600,498 588,475"/>
  </g>

  <!-- garden objects -->
  <g>
    <rect x="330" y="600" width="110" height="32" rx="8" fill="#553220" stroke="#2d1e16"/>
    <rect x="900" y="570" width="120" height="32" rx="8" fill="#553220" stroke="#2d1e16"/>
    <rect x="190" y="610" width="100" height="30" rx="8" fill="#553220" stroke="#2d1e16"/>
    <circle cx="360" cy="585" r="10" fill="#5d914f"/>
    <circle cx="390" cy="575" r="12" fill="#864e9a"/>
    <circle cx="420" cy="585" r="10" fill="#5d914f"/>
    <circle cx="930" cy="550" r="12" fill="#5d914f"/>
    <circle cx="980" cy="545" r="12" fill="#7b5ca3"/>
    <rect x="805" y="610" width="160" height="18" rx="5" fill="#5c3a22"/>
    <rect x="830" y="626" width="12" height="39" fill="#432a1b"/>
    <rect x="940" y="626" width="12" height="39" fill="#432a1b"/>
  </g>

  <!-- lanterns -->
  <g>
    <g opacity="0.9"><circle cx="285" cy="525" r="44" fill="url(#lanternGlow)" filter="url(#soft)"/><rect x="273" y="505" width="24" height="37" rx="5" fill="#1b1511" stroke="#91632f"/><ellipse cx="285" cy="524" rx="8" ry="13" fill="#ffc96d"/></g>
    <g opacity="0.85"><circle cx="710" cy="520" r="42" fill="url(#lanternGlow)" filter="url(#soft)"/><rect x="698" y="500" width="24" height="37" rx="5" fill="#1b1511" stroke="#91632f"/><ellipse cx="710" cy="519" rx="8" ry="13" fill="#ffc96d"/></g>
    <g opacity="0.82"><circle cx="1005" cy="540" r="42" fill="url(#lanternGlow)" filter="url(#soft)"/><rect x="993" y="520" width="24" height="37" rx="5" fill="#1b1511" stroke="#91632f"/><ellipse cx="1005" cy="539" rx="8" ry="13" fill="#ffc96d"/></g>
  </g>

  <!-- foreground plants -->
  <g stroke-linecap="round" opacity="0.72">
    <path d="M20 725 C40 660 55 640 80 600" stroke="#203b28" stroke-width="7"/>
    <path d="M120 725 C140 655 150 640 170 610" stroke="#2f5734" stroke-width="6"/>
    <path d="M1120 725 C1120 668 1145 640 1190 600" stroke="#203b28" stroke-width="7"/>
    <path d="M1230 725 C1215 680 1228 640 1265 600" stroke="#2f5734" stroke-width="6"/>
  </g>

  <rect width="1280" height="720" fill="none" stroke="#0a0909" stroke-width="18" opacity="0.18"/>
  <rect width="1280" height="720" fill="url(#sky)" opacity="0.05"/>
</svg>
