<svg xmlns="http://www.w3.org/2000/svg" viewBox="0 0 64 96" preserveAspectRatio="xMidYMax meet" shape-rendering="crispEdges">
  <rect width="64" height="96" fill="none"/>
  <rect x="20" y="10" width="24" height="46" fill="#b77a32"/>
  <rect x="17" y="16" width="30" height="42" fill="#e7b95f"/>
  <rect x="22" y="6" width="20" height="13" fill="#f2d68a"/>
  <rect x="18" y="12" width="8" height="12" fill="#f2d68a"/>
  <rect x="38" y="12" width="8" height="12" fill="#f2d68a"/>
  <rect x="22" y="18" width="20" height="17" fill="#f2c2a2"/>
  <rect x="26" y="25" width="3" height="3" fill="#2d6847"/>
  <rect x="36" y="25" width="3" height="3" fill="#2d6847"/>
  <rect x="30" y="31" width="5" height="1" fill="#8c5d5b"/>
  <rect x="29" y="36" width="6" height="4" fill="#f2c2a2"/>
  <rect x="18" y="39" width="28" height="26" fill="#4a1f24"/>
  <rect x="21" y="42" width="22" height="2" fill="#7d4b4a"/>
  <rect x="21" y="48" width="22" height="2" fill="#7d4b4a"/>
  <rect x="21" y="54" width="22" height="2" fill="#7d4b4a"/>
  <rect x="31" y="40" width="2" height="22" fill="#d6a354"/>
  <rect x="16" y="40" width="6" height="24" fill="#4a1f24"/>
  <rect x="42" y="40" width="6" height="24" fill="#4a1f24"/>
  <rect x="15" y="62" width="8" height="5" fill="#f2c2a2"/>
  <rect x="41" y="62" width="8" height="5" fill="#f2c2a2"/>
  <rect x="20" y="64" width="24" height="11" fill="#1f2430"/>
  <rect x="16" y="68" width="32" height="13" fill="#232837"/>
  <rect x="20" y="68" width="2" height="13" fill="#3f4555"/>
  <rect x="29" y="68" width="2" height="13" fill="#3f4555"/>
  <rect x="38" y="68" width="2" height="13" fill="#3f4555"/>
  <rect x="20" y="80" width="11" height="7" fill="#211f23"/>
  <rect x="34" y="80" width="11" height="7" fill="#211f23"/>
  <rect x="17" y="86" width="14" height="7" fill="#5b3a2a"/>
  <rect x="33" y="86" width="14" height="7" fill="#5b3a2a"/>
  <rect x="15" y="92" width="17" height="3" fill="#2b211b"/>
  <rect x="32" y="92" width="17" height="3" fill="#2b211b"/>
  <rect x="18" y="39" width="4" height="4" fill="#2b211b"/>
  <rect x="22" y="43" width="4" height="4" fill="#2b211b"/>
  <rect x="26" y="47" width="4" height="4" fill="#2b211b"/>
  <rect x="30" y="51" width="4" height="4" fill="#2b211b"/>
  <rect x="34" y="55" width="4" height="4" fill="#2b211b"/>
  <rect x="38" y="59" width="4" height="4" fill="#2b211b"/>
  <rect x="42" y="63" width="4" height="4" fill="#2b211b"/>
  <rect x="43" y="60" width="11" height="12" fill="#2b211b"/>
  <rect x="46" y="63" width="5" height="4" fill="#5c3c2b"/>
  <rect x="49" y="70" width="2" height="2" fill="#d8a64e"/>
</svg>