<svg xmlns="http://www.w3.org/2000/svg" viewBox="0 0 128 208" shape-rendering="crispEdges">
  <rect width="128" height="208" fill="none"/>
  <ellipse cx="64" cy="198" rx="32" ry="5" fill="#201817" opacity="0.28"/>

  <!-- outline silhouette -->
  <path d="M42 15h44v6h8v14h5v45h7v42h-6v34h-8v32h10v10H28v-10h10v-32h-8v-34h-6V80h7V35h5V21h6z" fill="#2a1f1b"/>

  <!-- long layered blonde hair -->
  <path d="M40 18h48v8h7v36h5v34h-5v42h-8v40h-10v-48h-5v58h-8v-72h-4v72h-8v-58h-5v48H37v-40h-8V96h-5V62h5V26h11z" fill="#c7893f"/>
  <path d="M44 16h40v7h8v34h5v34h-7v42h-7v30h-7v-48h-5v62h-6v-76h-4v76h-6v-62h-5v48h-7v-30h-7V91h-7V57h5V23h10z" fill="#f0c77a"/>
  <path d="M48 20h8v126h-4V54h-7V30h3zM61 18h6v154h-4V88h-4V34h2zM76 20h8v32h-7v94h-4V64h3z" fill="#ffe5ab" opacity="0.85"/>
  <path d="M36 22h54v8h-7v7h-8v7h-8v-7h-7v8h-8v9H36z" fill="#f7d98e"/>
  <path d="M44 18h24v7H55v7H43z" fill="#fff0bd" opacity="0.8"/>

  <!-- face, smaller and less round -->
  <rect x="48" y="34" width="32" height="34" fill="#f2c0a0"/>
  <rect x="44" y="43" width="6" height="14" fill="#f2c0a0"/>
  <rect x="78" y="43" width="6" height="14" fill="#f2c0a0"/>
  <rect x="49" y="34" width="30" height="5" fill="#b98457" opacity="0.32"/>
  <rect x="52" y="48" width="5" height="4" fill="#2e5b45"/>
  <rect x="71" y="48" width="5" height="4" fill="#2e5b45"/>
  <rect x="51" y="45" width="7" height="2" fill="#3a2a25"/>
  <rect x="70" y="45" width="7" height="2" fill="#3a2a25"/>
  <rect x="62" y="55" width="4" height="3" fill="#d2947d"/>
  <rect x="58" y="61" width="12" height="2" fill="#9f6f68"/>

  <!-- neck and shoulders -->
  <rect x="58" y="68" width="12" height="12" fill="#f2c0a0"/>
  <rect x="42" y="78" width="44" height="10" fill="#f2c0a0"/>

  <!-- necklaces -->
  <rect x="54" y="76" width="20" height="2" fill="#d6ac62"/>
  <rect x="62" y="79" width="4" height="8" fill="#c98f3e"/>
  <rect x="64" y="85" width="4" height="4" fill="#6b8b66"/>

  <!-- top, less cartoony and closer to reference colours -->
  <rect x="39" y="86" width="50" height="30" fill="#112e35"/>
  <rect x="39" y="89" width="50" height="4" fill="#2e6e67"/>
  <rect x="39" y="97" width="50" height="4" fill="#5b4758"/>
  <rect x="39" y="105" width="50" height="4" fill="#6f6b3f"/>
  <rect x="43" y="86" width="6" height="30" fill="#d3ece7" opacity="0.18"/>
  <rect x="83" y="86" width="6" height="30" fill="#000000" opacity="0.25"/>

  <!-- slim arms with tattoo pixels -->
  <rect x="28" y="86" width="10" height="44" fill="#f2c0a0"/>
  <rect x="90" y="86" width="10" height="44" fill="#f2c0a0"/>
  <rect x="25" y="126" width="13" height="9" fill="#f2c0a0"/>
  <rect x="90" y="126" width="13" height="9" fill="#f2c0a0"/>
  <rect x="95" y="98" width="3" height="4" fill="#d5a443"/>
  <rect x="99" y="102" width="3" height="3" fill="#3c5b36"/>
  <rect x="92" y="110" width="3" height="4" fill="#27211e"/>
  <rect x="30" y="116" width="4" height="3" fill="#d6ac62"/>

  <!-- crossbody strap -->
  <path d="M39 82h7v7h5v8h5v7h5v8h5v7h5v8h5v8h5v7h5v8h5v8h-8v-7h-5v-8h-5v-7h-5v-8h-5v-7h-5v-8h-5v-7h-5v-8h-5z" fill="#211a19"/>

  <!-- bag -->
  <rect x="86" y="130" width="22" height="24" fill="#211a19"/>
  <rect x="91" y="134" width="12" height="8" fill="#4a3328"/>
  <rect x="97" y="148" width="5" height="5" fill="#c89445"/>
  <rect x="90" y="154" width="4" height="6" fill="#6b8b66"/>
  <rect x="103" y="154" width="4" height="6" fill="#c89445"/>

  <!-- loose dark trousers with cargo shape -->
  <rect x="31" y="116" width="30" height="58" fill="#26242b"/>
  <rect x="67" y="116" width="30" height="58" fill="#26242b"/>
  <rect x="27" y="122" width="8" height="42" fill="#19171c"/>
  <rect x="93" y="122" width="8" height="42" fill="#19171c"/>
  <rect x="36" y="128" width="14" height="18" fill="#1c1a20"/>
  <rect x="78" y="128" width="14" height="18" fill="#1c1a20"/>
  <rect x="36" y="166" width="22" height="9" fill="#d7c0a5"/>
  <rect x="70" y="166" width="22" height="9" fill="#d7c0a5"/>

  <!-- boots -->
  <rect x="33" y="175" width="28" height="14" fill="#5a3827"/>
  <rect x="67" y="175" width="28" height="14" fill="#5a3827"/>
  <rect x="29" y="188" width="34" height="7" fill="#30231c"/>
  <rect x="65" y="188" width="34" height="7" fill="#30231c"/>
  <rect x="41" y="178" width="12" height="3" fill="#8a6240"/>
  <rect x="75" y="178" width="12" height="3" fill="#8a6240"/>

  <!-- outline details -->
  <rect x="38" y="86" width="52" height="4" fill="#211a19"/>
  <rect x="38" y="112" width="52" height="4" fill="#211a19"/>
  <rect x="31" y="116" width="30" height="4" fill="#17151a"/>
  <rect x="67" y="116" width="30" height="4" fill="#17151a"/>
</svg>