<svg xmlns="http://www.w3.org/2000/svg" viewBox="0 0 320 220" shape-rendering="crispEdges"><rect width="320" height="220" fill="none"/><ellipse cx="160" cy="204" rx="128" ry="10" fill="#2d2118" opacity=".25"/><rect x="56" y="94" width="208" height="98" fill="#4d3022"/><rect x="66" y="104" width="188" height="82" fill="#bd8557"/><rect x="74" y="112" width="14" height="74" fill="#d19b69"/><rect x="112" y="104" width="10" height="82" fill="#8f5f3d"/><rect x="156" y="104" width="10" height="82" fill="#8f5f3d"/><rect x="202" y="104" width="10" height="82" fill="#8f5f3d"/><path d="M34 98h252L160 20z" fill="#4d3022"/><path d="M52 94h216L160 34z" fill="#a3472e"/><rect x="72" y="84" width="176" height="12" fill="#642f22"/><rect x="104" y="28" width="34" height="58" fill="#6b3c2b"/><rect x="96" y="24" width="50" height="12" fill="#4d3022"/><rect x="88" y="120" width="52" height="44" fill="#4d3022"/><rect x="96" y="128" width="36" height="28" fill="#c9e8f2"/><rect x="180" y="120" width="52" height="44" fill="#4d3022"/><rect x="188" y="128" width="36" height="28" fill="#c9e8f2"/><rect x="112" y="140" width="8" height="16" fill="#4d3022"/><rect x="204" y="140" width="8" height="16" fill="#4d3022"/><rect x="142" y="130" width="38" height="56" fill="#4d3022"/><rect x="150" y="138" width="22" height="48" fill="#6b422b"/><rect x="166" y="162" width="6" height="6" fill="#e6b95b"/><rect x="78" y="168" width="58" height="14" fill="#3f7a42"/><rect x="186" y="168" width="58" height="14" fill="#3f7a42"/><rect x="84" y="160" width="8" height="8" fill="#75b95b"/><rect x="102" y="154" width="8" height="14" fill="#75b95b"/><rect x="118" y="158" width="8" height="10" fill="#75b95b"/><rect x="198" y="154" width="8" height="14" fill="#75b95b"/><rect x="216" y="158" width="8" height="10" fill="#75b95b"/><rect x="232" y="154" width="8" height="14" fill="#75b95b"/></svg>