<svg xmlns="http://www.w3.org/2000/svg" viewBox="0 0 320 180" preserveAspectRatio="xMidYMid slice" shape-rendering="crispEdges">
  <rect width="320" height="180" fill="#d9c3a1"/>

  <!-- wall panels -->
  <rect x="0" y="0" width="320" height="108" fill="#c9b08e"/>
  <rect x="0" y="0" width="320" height="10" fill="#7a5637"/>
  <rect x="0" y="100" width="320" height="8" fill="#6b4a31"/>
  <rect x="18" y="10" width="5" height="96" fill="#8a6240"/>
  <rect x="83" y="10" width="5" height="96" fill="#8a6240"/>
  <rect x="154" y="10" width="5" height="96" fill="#8a6240"/>
  <rect x="236" y="10" width="5" height="96" fill="#8a6240"/>
  <rect x="302" y="10" width="5" height="96" fill="#8a6240"/>
  <rect x="0" y="38" width="320" height="3" fill="#b89670"/>
  <rect x="0" y="72" width="320" height="3" fill="#b89670"/>

  <!-- floor -->
  <rect x="0" y="108" width="320" height="72" fill="#8b633e"/>
  <rect x="0" y="124" width="320" height="3" fill="#6f4d33"/>
  <rect x="0" y="142" width="320" height="3" fill="#6f4d33"/>
  <rect x="0" y="160" width="320" height="3" fill="#6f4d33"/>
  <rect x="32" y="108" width="3" height="18" fill="#6f4d33"/>
  <rect x="96" y="126" width="3" height="18" fill="#6f4d33"/>
  <rect x="160" y="108" width="3" height="18" fill="#6f4d33"/>
  <rect x="226" y="144" width="3" height="18" fill="#6f4d33"/>

  <!-- soft green rug -->
  <rect x="104" y="126" width="96" height="38" fill="#617b5a"/>
  <rect x="110" y="132" width="84" height="26" fill="#78946c"/>
  <rect x="122" y="138" width="60" height="14" fill="#8fa982"/>

  <!-- window -->
  <rect x="24" y="18" width="50" height="38" fill="#5a3d2a"/>
  <rect x="29" y="23" width="40" height="28" fill="#9ec7d8"/>
  <rect x="47" y="23" width="4" height="28" fill="#5a3d2a"/>
  <rect x="29" y="35" width="40" height="4" fill="#5a3d2a"/>
  <rect x="18" y="54" width="62" height="5" fill="#6b4a31"/>
  <rect x="20" y="59" width="14" height="18" fill="#496f49"/>
  <rect x="24" y="55" width="6" height="8" fill="#77a464"/>
  <rect x="58" y="59" width="14" height="18" fill="#496f49"/>
  <rect x="62" y="55" width="6" height="8" fill="#77a464"/>

  <!-- bed, rattan/cozy starter version -->
  <rect x="212" y="50" width="76" height="60" fill="#5c3d2b"/>
  <rect x="218" y="40" width="64" height="18" fill="#b98754"/>
  <rect x="224" y="34" width="52" height="12" fill="#d1a36c"/>
  <rect x="218" y="58" width="64" height="42" fill="#e7d6bd"/>
  <rect x="224" y="62" width="24" height="14" fill="#fff0da"/>
  <rect x="250" y="62" width="26" height="22" fill="#b78b87"/>
  <rect x="218" y="92" width="64" height="8" fill="#9c6b45"/>
  <rect x="210" y="44" width="7" height="70" fill="#4b3225"/>
  <rect x="283" y="44" width="7" height="70" fill="#4b3225"/>
  <rect x="226" y="40" width="4" height="18" fill="#7b563b"/>
  <rect x="238" y="40" width="4" height="18" fill="#7b563b"/>
  <rect x="250" y="40" width="4" height="18" fill="#7b563b"/>
  <rect x="262" y="40" width="4" height="18" fill="#7b563b"/>

  <!-- side table and lamp -->
  <rect x="190" y="76" width="20" height="28" fill="#6b4a31"/>
  <rect x="186" y="72" width="28" height="8" fill="#4f3525"/>
  <rect x="195" y="60" width="10" height="12" fill="#d5a14e"/>
  <rect x="191" y="56" width="18" height="6" fill="#f3d37a"/>
  <rect x="193" y="68" width="14" height="5" fill="#ffdf88" opacity=".7"/>

  <!-- mirror for appearance -->
  <rect x="142" y="22" width="34" height="62" fill="#4f3525"/>
  <rect x="147" y="27" width="24" height="46" fill="#b9d8de"/>
  <rect x="151" y="31" width="16" height="36" fill="#e8f7f7" opacity=".65"/>
  <rect x="152" y="74" width="14" height="9" fill="#6b4a31"/>
  <rect x="148" y="83" width="22" height="5" fill="#4f3525"/>

  <!-- desk and books -->
  <rect x="34" y="102" width="66" height="10" fill="#5a3d2a"/>
  <rect x="40" y="112" width="7" height="38" fill="#402a1f"/>
  <rect x="87" y="112" width="7" height="38" fill="#402a1f"/>
  <rect x="46" y="91" width="34" height="10" fill="#ead9bc"/>
  <rect x="52" y="94" width="20" height="2" fill="#8c6c4f"/>
  <rect x="82" y="88" width="6" height="12" fill="#7e3342"/>
  <rect x="89" y="86" width="6" height="14" fill="#406b54"/>

  <!-- geode/source shelf -->
  <rect x="96" y="42" width="42" height="5" fill="#5a3d2a"/>
  <rect x="100" y="31" width="8" height="11" fill="#744d35"/>
  <rect x="112" y="27" width="8" height="15" fill="#8b5c3b"/>
  <rect x="126" y="34" width="8" height="8" fill="#a783b8"/>
  <rect x="107" y="48" width="24" height="5" fill="#5a3d2a"/>
  <rect x="111" y="56" width="7" height="7" fill="#d8b953"/>
  <rect x="122" y="55" width="8" height="8" fill="#65a879"/>

  <!-- wardrobe/chest -->
  <rect x="242" y="113" width="48" height="50" fill="#4f3525"/>
  <rect x="247" y="119" width="17" height="38" fill="#6b4a31"/>
  <rect x="268" y="119" width="17" height="38" fill="#6b4a31"/>
  <rect x="262" y="138" width="4" height="4" fill="#d6a354"/>
  <rect x="267" y="138" width="4" height="4" fill="#d6a354"/>

  <!-- plants and cozy props -->
  <rect x="296" y="124" width="14" height="26" fill="#6b4a31"/>
  <rect x="292" y="116" width="7" height="9" fill="#4f7c4a"/>
  <rect x="302" y="112" width="7" height="13" fill="#4f7c4a"/>
  <rect x="300" y="105" width="6" height="12" fill="#78a464"/>
  <rect x="16" y="140" width="14" height="20" fill="#6b4a31"/>
  <rect x="12" y="132" width="7" height="10" fill="#4f7c4a"/>
  <rect x="24" y="130" width="7" height="12" fill="#78a464"/>
  <rect x="18" y="124" width="7" height="12" fill="#4f7c4a"/>

  <!-- pixel lighting -->
  <rect x="188" y="54" width="28" height="28" fill="#ffd87b" opacity=".09"/>
  <rect x="178" y="44" width="48" height="48" fill="#ffd87b" opacity=".06"/>
</svg>