<svg xmlns="http://www.w3.org/2000/svg" viewBox="0 0 360 720" preserveAspectRatio="xMidYMax meet">
  <defs>
    <linearGradient id="hair" x1="0" y1="0" x2="1" y2="1"><stop offset="0" stop-color="#fff0bd"/><stop offset="0.45" stop-color="#d9a052"/><stop offset="1" stop-color="#8e5629"/></linearGradient>
    <linearGradient id="skin" x1="0" y1="0" x2="1" y2="1"><stop offset="0" stop-color="#ffd8c2"/><stop offset="1" stop-color="#e7a27f"/></linearGradient>
    <linearGradient id="boot" x1="0" y1="0" x2="0" y2="1"><stop offset="0" stop-color="#7a4b2d"/><stop offset="1" stop-color="#2b1d17"/></linearGradient>
    <linearGradient id="dress" x1="0" y1="0" x2="0" y2="1"><stop offset="0" stop-color="#f4c8c8"/><stop offset=".55" stop-color="#d9939a"/><stop offset="1" stop-color="#9f6972"/></linearGradient>
  </defs>
  <ellipse cx="180" cy="704" rx="82" ry="14" fill="#1b1411" opacity=".2"/>
  <path d="M90 48c-38 60-34 176-22 294 9 93 4 183-18 310h68c11-104 18-220 18-351h88c0 131 7 247 18 351h68c-22-127-27-217-18-310 12-118 16-234-22-294-50-58-130-58-180 0z" fill="url(#hair)"/>
  <path d="M116 26h128c35 18 52 54 52 103v90c-30 44-68 74-116 74s-86-30-116-74v-90c0-49 17-85 52-103z" fill="url(#hair)"/>
  <path d="M88 76c45 12 80-3 105-42 35 29 64 30 91 65-27-78-149-104-196-23z" fill="#ffe5a3" opacity=".78"/>
  <rect x="130" y="92" width="100" height="116" rx="40" fill="url(#skin)"/><ellipse cx="154" cy="145" rx="8" ry="11" fill="#315d43"/><ellipse cx="206" cy="145" rx="8" ry="11" fill="#315d43"/><path d="M166 182c11 7 23 7 34 0" stroke="#9b615c" stroke-width="5" fill="none" stroke-linecap="round"/><rect x="164" y="204" width="32" height="38" fill="url(#skin)"/>
  <path d="M116 248h128l18 66H98z" fill="url(#dress)"/><path d="M104 278h152l38 270H66z" fill="url(#dress)"/><path d="M84 336h192l46 212H38z" fill="#c77e8a" opacity=".55"/><path d="M104 278c24 38 128 38 152 0" fill="#f2c2c5" opacity=".7"/>
  <path d="M96 258l-38 28-22 202h44l32-166zM264 258l38 28 22 202h-44l-32-166z" fill="url(#skin)"/>
  <path d="M92 262c-16 26-22 51-18 76h52c-7-32-7-57 0-76zM234 262c7 19 7 44 0 76h52c4-25-2-50-18-76z" fill="#f1c9c9" opacity=".9"/>
  <path d="M104 314h152M92 372h176M78 438h204M66 516h228" stroke="#f7ded9" stroke-width="6" opacity=".8"/><path d="M116 248l128 0M112 292l136 0" stroke="#704752" stroke-width="4" opacity=".45"/>
  <path d="M130 538h50l-20 68H108zM188 538h50l24 68h-58z" fill="url(#skin)"/>
  <path d="M96 600h72v74H84zM196 600h72v74h-82z" fill="url(#boot)"/><path d="M76 668h104v28H66zM184 668h112v28H178z" fill="#201712"/>
  <path d="M110 246l158 284" stroke="#2c211b" stroke-width="16"/><rect x="248" y="410" width="74" height="82" rx="12" fill="#2a211e"/><rect x="264" y="432" width="38" height="26" fill="#5c3c2b"/><circle cx="296" cy="472" r="8" fill="#d9a84f"/>
  <path d="M132 244q20 26 48 0 20 26 48 0" stroke="#c79745" stroke-width="5" fill="none"/><circle cx="180" cy="279" r="8" fill="#315d43"/><path d="M180 250v28" stroke="#c79745" stroke-width="5"/>
  <path d="M286 342c10 8 20 14 30 8M294 360c10 5 17 11 24 23M280 382c10 5 16 12 21 27" stroke="#324428" stroke-width="5" fill="none"/>
</svg>