<svg xmlns="http://www.w3.org/2000/svg" viewBox="0 0 360 720" preserveAspectRatio="xMidYMax meet">
  <defs>
    <linearGradient id="hair" x1="0" y1="0" x2="1" y2="1"><stop offset="0" stop-color="#fff0bd"/><stop offset="0.45" stop-color="#d9a052"/><stop offset="1" stop-color="#8e5629"/></linearGradient>
    <linearGradient id="skin" x1="0" y1="0" x2="1" y2="1"><stop offset="0" stop-color="#ffd8c2"/><stop offset="1" stop-color="#e7a27f"/></linearGradient>
    <linearGradient id="boot" x1="0" y1="0" x2="0" y2="1"><stop offset="0" stop-color="#7a4b2d"/><stop offset="1" stop-color="#2b1d17"/></linearGradient>
  </defs>
  <ellipse cx="180" cy="704" rx="70" ry="14" fill="#1b1411" opacity=".2"/>
  <path d="M96 48c-38 60-34 176-22 294 9 93 4 183-18 310h68c11-104 18-220 18-351h76c0 131 7 247 18 351h68c-22-127-27-217-18-310 12-118 16-234-22-294-44-58-124-58-168 0z" fill="url(#hair)"/>
  <path d="M118 26h124c35 18 52 54 52 103v90c-28 44-66 74-114 74s-86-30-114-74v-90c0-49 17-85 52-103z" fill="url(#hair)"/>
  <path d="M88 76c45 12 80-3 105-42 35 29 64 30 91 65-27-78-149-104-196-23z" fill="#ffe5a3" opacity=".78"/>
  <rect x="130" y="92" width="100" height="116" rx="40" fill="url(#skin)"/>
  <rect x="112" y="132" width="24" height="44" rx="12" fill="url(#skin)"/><rect x="224" y="132" width="24" height="44" rx="12" fill="url(#skin)"/>
  <ellipse cx="154" cy="145" rx="8" ry="11" fill="#315d43"/><ellipse cx="206" cy="145" rx="8" ry="11" fill="#315d43"/>
  <path d="M166 182c11 7 23 7 34 0" stroke="#9b615c" stroke-width="5" fill="none" stroke-linecap="round"/>
  <rect x="164" y="204" width="32" height="38" fill="url(#skin)"/>
  <path d="M128 235h104l24 70H104z" fill="url(#skin)"/>
  <path d="M118 258h124v90H118z" fill="#eadcc7"/>
  <path d="M120 258c24 17 95 17 120 0l-10 90H130z" fill="#f7ead6" opacity=".75"/>
  <path d="M96 258l-38 28-22 202h44l32-170zM264 258l38 28 22 202h-44l-32-170z" fill="url(#skin)"/>
  <path d="M112 348h136l12 74H100z" fill="#333239"/>
  <path d="M116 366h128v56H116z" fill="#3e3e46"/>
  <path d="M124 418h50l-18 186H96zM186 418h50l28 186h-60z" fill="url(#skin)"/>
  <path d="M100 600h64v74H88zM196 600h64v74h-76z" fill="url(#boot)"/>
  <path d="M82 668h92v28H72zM186 668h102v28H180z" fill="#201712"/>
  <path d="M132 244q20 26 48 0 20 26 48 0" stroke="#c79745" stroke-width="5" fill="none"/>
  <circle cx="180" cy="279" r="8" fill="#315d43"/><path d="M180 250v28" stroke="#c79745" stroke-width="5"/>
  <path d="M288 342c10 8 20 14 30 8M296 360c10 5 17 11 24 23M282 382c10 5 16 12 21 27" stroke="#324428" stroke-width="5" fill="none"/>
</svg>