<svg xmlns="http://www.w3.org/2000/svg" viewBox="0 0 360 720" preserveAspectRatio="xMidYMax meet">
  <defs>
    <linearGradient id="hair" x1="0" y1="0" x2="1" y2="1"><stop offset="0" stop-color="#fff0bd"/><stop offset="0.45" stop-color="#d9a052"/><stop offset="1" stop-color="#8e5629"/></linearGradient>
    <linearGradient id="skin" x1="0" y1="0" x2="1" y2="1"><stop offset="0" stop-color="#ffd8c2"/><stop offset="1" stop-color="#e7a27f"/></linearGradient>
    <linearGradient id="boot" x1="0" y1="0" x2="0" y2="1"><stop offset="0" stop-color="#7a4b2d"/><stop offset="1" stop-color="#2b1d17"/></linearGradient>
    <linearGradient id="bodice" x1="0" y1="0" x2="0" y2="1"><stop offset="0" stop-color="#1d1d25"/><stop offset="1" stop-color="#0d0d12"/></linearGradient>
    <pattern id="pinstripe" width="18" height="18" patternUnits="userSpaceOnUse"><rect width="18" height="18" fill="#171820"/><path d="M4 0v18M13 0v18" stroke="#3e4555" stroke-width="1"/><path d="M0 9h18" stroke="#2f2a32" stroke-width="1"/></pattern>
  </defs>
  <ellipse cx="180" cy="704" rx="78" ry="14" fill="#1b1411" opacity=".2"/>
  <path d="M90 48c-38 60-34 176-22 294 9 93 4 183-18 310h68c11-104 18-220 18-351h88c0 131 7 247 18 351h68c-22-127-27-217-18-310 12-118 16-234-22-294-50-58-130-58-180 0z" fill="url(#hair)"/>
  <path d="M116 26h128c35 18 52 54 52 103v90c-30 44-68 74-116 74s-86-30-116-74v-90c0-49 17-85 52-103z" fill="url(#hair)"/>
  <path d="M88 76c45 12 80-3 105-42 35 29 64 30 91 65-27-78-149-104-196-23z" fill="#ffe5a3" opacity=".78"/>
  <rect x="130" y="92" width="100" height="116" rx="40" fill="url(#skin)"/><ellipse cx="154" cy="145" rx="8" ry="11" fill="#315d43"/><ellipse cx="206" cy="145" rx="8" ry="11" fill="#315d43"/><path d="M166 182c11 7 23 7 34 0" stroke="#9b615c" stroke-width="5" fill="none" stroke-linecap="round"/><rect x="164" y="204" width="32" height="38" fill="url(#skin)"/>
  <path d="M94 246h172l34 92H60z" fill="#f2dec8"/><path d="M76 264c-18 28-22 54-12 92h62c-8-36-6-66 6-92zM228 264c12 26 14 56 6 92h62c10-38 6-64-12-92z" fill="#f2dec8"/>
  <path d="M108 240h144l28 188H80z" fill="url(#bodice)"/><path d="M134 256h92l20 152H114z" fill="#20222b"/><path d="M130 260l100 0M126 284h108M122 308h116" stroke="#705138" stroke-width="4" opacity=".75"/><path d="M180 254v154" stroke="#b98a46" stroke-width="5"/><path d="M156 276l48 34M204 276l-48 34M158 326l44 32M202 326l-44 32" stroke="#c9984f" stroke-width="4"/>
  <path d="M82 400h196l-34 86H116z" fill="#1d2028"/><path d="M108 486h52l-18 112H76zM198 486h52l32 112h-68z" fill="#343432"/><path d="M96 596h72v78H84zM198 596h72v78h-84z" fill="url(#boot)"/><path d="M76 668h104v28H66zM184 668h112v28H178z" fill="#201712"/>
  <path d="M104 246l158 284" stroke="#2c211b" stroke-width="16"/><rect x="248" y="412" width="74" height="82" rx="12" fill="#2a211e"/><rect x="264" y="434" width="38" height="26" fill="#5c3c2b"/><circle cx="296" cy="474" r="8" fill="#d9a84f"/>
  <path d="M132 244q20 26 48 0 20 26 48 0" stroke="#c79745" stroke-width="5" fill="none"/><circle cx="180" cy="279" r="8" fill="#315d43"/><path d="M180 250v28" stroke="#c79745" stroke-width="5"/>
  <path d="M286 342c10 8 20 14 30 8M294 360c10 5 17 11 24 23M280 382c10 5 16 12 21 27" stroke="#324428" stroke-width="5" fill="none"/>
</svg>